<?xml version="1.0" encoding="UTF-8"?>
<svg xmlns="http://www.w3.org/2000/svg" width="2658" height="924" viewBox="0 0 2658 924" font-family="ui-sans-serif, system-ui, -apple-system, 'Segoe UI', Roboto, 'Helvetica Neue', Arial, sans-serif" style="background:#000000">
  <defs>
    <marker id="ah-solid" markerWidth="9" markerHeight="9" refX="8" refY="3" orient="auto"><path d="M0,0 L0,6 L8,3 z" fill="#e2e8f0"/></marker>
    <marker id="ah-thin" markerWidth="9" markerHeight="9" refX="8" refY="3" orient="auto"><path d="M0,0 L0,6 L8,3 z" fill="#9ca3af"/></marker>
    <marker id="ah-stream" markerWidth="9" markerHeight="9" refX="8" refY="3" orient="auto"><path d="M0,0 L0,6 L8,3 z" fill="#d9f99d"/></marker>
    <marker id="ah-axil" markerWidth="9" markerHeight="9" refX="8" refY="3" orient="auto"><path d="M0,0 L0,6 L8,3 z" fill="#93c5fd"/></marker>
    <marker id="ah-cdc" markerWidth="9" markerHeight="9" refX="8" refY="3" orient="auto"><path d="M0,0 L0,6 L8,3 z" fill="#d8b4fe"/></marker>
    <marker id="ah-open" markerWidth="9" markerHeight="9" refX="8" refY="3" orient="auto"><path d="M0.5,0.5 L0.5,5.5 L8,3 z" fill="#000000" stroke="#e2e8f0" stroke-width="1"/></marker>
    <linearGradient id="grad-mac_sys" x1="0%" y1="0%" x2="100%" y2="0%"><stop offset="50%" stop-color="#E3F2FD"/><stop offset="50%" stop-color="#E8F5E9"/></linearGradient>
  </defs>
  <rect width="2658" height="924" fill="#000000" id="_canvas_bg"/>
  <text x="1329.0" y="24" text-anchor="middle" font-size="28" font-weight="600" fill="#e2e8f0" letter-spacing="0.2">emacZero Arty A7 Top-Level Architecture</text>
  <rect id="tx_sources" x="44" y="74" width="350" height="136" fill="#E3F2FD" stroke="#1565C0" stroke-width="1.4" rx="8"/>
  <text x="219" y="140" text-anchor="middle" font-size="24" font-weight="600" fill="#1f2937">TX packet sources</text>
  <text x="219" y="156" text-anchor="middle" font-size="20" font-style="italic" fill="#1f2937" opacity="0.85">test / ARP / ICMP / UDP / blast</text>
  <rect id="tx_arb" x="599" y="74" width="350" height="136" fill="#E3F2FD" stroke="#1565C0" stroke-width="1.4" rx="8"/>
  <text x="774" y="140" text-anchor="middle" font-size="24" font-weight="600" fill="#1f2937">arty_tx_arbiter</text>
  <text x="774" y="156" text-anchor="middle" font-size="20" font-style="italic" fill="#1f2937" opacity="0.85">6-input AXIS mux</text>
  <rect id="mac_sys" x="1154" y="74" width="350" height="136" fill="url(#grad-mac_sys)" stroke="#4b5563" stroke-width="1.4" rx="8"/>
  <text x="1329" y="140" text-anchor="middle" font-size="24" font-weight="600" fill="#1f2937">eth_mac_sys</text>
  <text x="1329" y="156" text-anchor="middle" font-size="20" font-style="italic" fill="#1f2937" opacity="0.85">MAC + CSR + stats + MDIO</text>
  <rect id="host_phy" x="1709" y="74" width="350" height="136" fill="#374151" stroke="#9ca3af" stroke-width="1.4" rx="8"/>
  <text x="1884" y="140" text-anchor="middle" font-size="24" font-weight="600" fill="#e2e8f0">DP83848 PHY</text>
  <text x="1884" y="156" text-anchor="middle" font-size="20" font-style="italic" fill="#e2e8f0" opacity="0.85">MII + MDIO</text>
  <rect id="test_seq" x="1154" y="364" width="350" height="136" fill="#E3F2FD" stroke="#1565C0" stroke-width="1.4" rx="8"/>
  <text x="1329" y="430" text-anchor="middle" font-size="24" font-weight="600" fill="#1f2937">test_sequencer</text>
  <text x="1329" y="446" text-anchor="middle" font-size="20" font-style="italic" fill="#1f2937" opacity="0.85">CSR init / UART status</text>
  <rect id="uart" x="1154" y="654" width="350" height="136" fill="#E3F2FD" stroke="#1565C0" stroke-width="1.4" rx="8"/>
  <text x="1329" y="720" text-anchor="middle" font-size="24" font-weight="600" fill="#1f2937">uart_tx</text>
  <text x="1329" y="736" text-anchor="middle" font-size="20" font-style="italic" fill="#1f2937" opacity="0.85">serial log</text>
  <rect id="net_rx" x="1709" y="364" width="350" height="136" fill="#E3F2FD" stroke="#1565C0" stroke-width="1.4" rx="8"/>
  <text x="1884" y="430" text-anchor="middle" font-size="24" font-weight="600" fill="#1f2937">net_rx</text>
  <text x="1884" y="446" text-anchor="middle" font-size="20" font-style="italic" fill="#1f2937" opacity="0.85">Ethernet/IP/UDP demux</text>
  <rect id="rx_services" x="2264" y="364" width="350" height="136" fill="#E3F2FD" stroke="#1565C0" stroke-width="1.4" rx="8"/>
  <text x="2439" y="430" text-anchor="middle" font-size="24" font-weight="600" fill="#1f2937">RX services</text>
  <text x="2439" y="446" text-anchor="middle" font-size="20" font-style="italic" fill="#1f2937" opacity="0.85">ARP / ICMP / UDP echo / stats</text>
  <rect id="iperf_sink" x="2264" y="654" width="350" height="136" fill="#E3F2FD" stroke="#1565C0" stroke-width="1.4" rx="8"/>
  <text x="2439" y="720" text-anchor="middle" font-size="24" font-weight="600" fill="#1f2937">udp_iperf_sink</text>
  <text x="2439" y="736" text-anchor="middle" font-size="20" font-style="italic" fill="#1f2937" opacity="0.85">UDP/5001 counters</text>
  <path id="edge_tx_sources_to_tx_arb" d="M 394.0,142.0 L 496.5,142.0 L 599.0,142.0" stroke="#d9f99d" stroke-width="2.2" fill="none" marker-end="url(#ah-stream)"/>
  <rect x="409.2" y="123.2" width="72.0" height="19.0" fill="#1f2937" stroke="#4b5563" stroke-width="0.6" rx="3"/>
  <text x="445.2" y="138.0" text-anchor="middle" font-size="20" fill="#e2e8f0">AXI-S 8b</text>
  <path id="edge_tx_arb_to_mac_sys" d="M 949.0,142.0 L 1051.5,142.0 L 1154.0,142.0" stroke="#d9f99d" stroke-width="2.2" fill="none" marker-end="url(#ah-stream)"/>
  <rect x="964.2" y="123.2" width="72.0" height="19.0" fill="#1f2937" stroke="#4b5563" stroke-width="0.6" rx="3"/>
  <text x="1000.2" y="138.0" text-anchor="middle" font-size="20" fill="#e2e8f0">AXI-S 8b</text>
  <path id="edge_mac_sys_to_host_phy" d="M 1504.0,119.3 L 1544.0,119.3 L 1544.0,142.0 L 1709.0,142.0" stroke="#d8b4fe" stroke-width="1.8" fill="none" marker-end="url(#ah-cdc)" stroke-dasharray="6,3"/>
  <rect x="1594.6" y="123.2" width="63.8" height="19.0" fill="#1f2937" stroke="#4b5563" stroke-width="0.6" rx="3"/>
  <text x="1626.5" y="138.0" text-anchor="middle" font-size="20" fill="#e2e8f0">CDC MII</text>
  <path id="edge_mac_sys_to_net_rx" d="M 1504.0,164.7 L 1669.0,164.7 L 1669.0,432.0 L 1709.0,432.0" stroke="#d9f99d" stroke-width="2.2" fill="none" marker-end="url(#ah-stream)"/>
  <rect x="1633.0" y="286.6" width="72.0" height="19.0" fill="#1f2937" stroke="#4b5563" stroke-width="0.6" rx="3"/>
  <text x="1669.0" y="301.3" text-anchor="middle" font-size="20" fill="#e2e8f0">AXI-S 8b</text>
  <path id="edge_net_rx_to_rx_services" d="M 2059.0,409.3 L 2099.0,409.3 L 2099.0,432.0 L 2264.0,432.0" stroke="#9ca3af" stroke-width="1.4" fill="none" marker-end="url(#ah-thin)"/>
  <rect x="2170.2" y="413.2" width="22.5" height="19.0" fill="#1f2937" stroke="#4b5563" stroke-width="0.6" rx="3"/>
  <text x="2181.5" y="428.0" text-anchor="middle" font-size="20" fill="#e2e8f0">L3</text>
  <path id="edge_net_rx_to_iperf_sink" d="M 2059.0,454.7 L 2224.0,454.7 L 2224.0,722.0 L 2264.0,722.0" stroke="#9ca3af" stroke-width="1.4" fill="none" marker-end="url(#ah-thin)"/>
  <rect x="2208.6" y="576.6" width="30.8" height="19.0" fill="#1f2937" stroke="#4b5563" stroke-width="0.6" rx="3"/>
  <text x="2224.0" y="591.3" text-anchor="middle" font-size="20" fill="#e2e8f0">UDP</text>
  <path id="edge_iperf_sink_to_rx_services" d="M 2439.0,654.0 L 2439.0,577.0 L 2439.0,500.0" stroke="#9ca3af" stroke-width="1.4" fill="none" marker-end="url(#ah-thin)"/>
  <rect x="2415.4" y="603.8" width="47.2" height="19.0" fill="#1f2937" stroke="#4b5563" stroke-width="0.6" rx="3"/>
  <text x="2439.0" y="618.5" text-anchor="middle" font-size="20" fill="#e2e8f0">stats</text>
  <path id="edge_test_seq_to_mac_sys" d="M 1329.0,364.0 L 1329.0,287.0 L 1329.0,210.0" stroke="#93c5fd" stroke-width="2.5" fill="none" marker-end="url(#ah-axil)"/>
  <rect x="1288.9" y="313.8" width="80.2" height="19.0" fill="#1f2937" stroke="#4b5563" stroke-width="0.6" rx="3"/>
  <text x="1329.0" y="328.5" text-anchor="middle" font-size="20" fill="#e2e8f0">AXI-L 32b</text>
  <path id="edge_test_seq_to_uart" d="M 1329.0,500.0 L 1329.0,577.0 L 1329.0,654.0" stroke="#9ca3af" stroke-width="1.4" fill="none" marker-end="url(#ah-thin)"/>
  <rect x="1317.8" y="526.8" width="22.5" height="19.0" fill="#1f2937" stroke="#4b5563" stroke-width="0.6" rx="3"/>
  <text x="1329.0" y="541.5" text-anchor="middle" font-size="20" fill="#e2e8f0">8b</text>
  <text x="44" y="844" font-size="20" font-weight="600" fill="#9ca3af" letter-spacing="0.5">CLOCK DOMAINS</text>
  <rect x="44" y="858" width="18" height="14" fill="#E3F2FD" stroke="#1565C0" stroke-width="0.8" rx="3"/>
  <text x="68" y="869" font-size="20" fill="#e2e8f0">sys  100 MHz</text>
  <rect x="210" y="858" width="18" height="14" fill="#E8F5E9" stroke="#2E7D32" stroke-width="0.8" rx="3"/>
  <text x="234" y="869" font-size="20" fill="#e2e8f0">phy  25 MHz</text>
  <text x="44" y="894" font-size="20" font-weight="600" fill="#9ca3af" letter-spacing="0.5">CONNECTION STYLES</text>
  <path id="legend-arrow-axi-stream" d="M 44,915 L 80,915" stroke="#d9f99d" stroke-width="2.2" fill="none" marker-end="url(#ah-stream)"/>
  <text x="90" y="919" font-size="20" fill="#e2e8f0">AXI-Stream</text>
  <path id="legend-arrow-cdc" d="M 212,915 L 248,915" stroke="#d8b4fe" stroke-width="1.8" fill="none" marker-end="url(#ah-cdc)" stroke-dasharray="6,3"/>
  <text x="258" y="919" font-size="20" fill="#e2e8f0">CDC traversal (re-clocked)</text>
  <path id="legend-arrow-generic" d="M 590,915 L 626,915" stroke="#9ca3af" stroke-width="1.4" fill="none" marker-end="url(#ah-thin)"/>
  <text x="636" y="919" font-size="20" fill="#e2e8f0">Generic / discrete</text>
  <path id="legend-arrow-axi-lite" d="M 860,915 L 896,915" stroke="#93c5fd" stroke-width="2.5" fill="none" marker-end="url(#ah-axil)"/>
  <text x="906" y="919" font-size="20" fill="#e2e8f0">AXI4-Lite control</text>
</svg>
